<svg width="37" height="38" viewBox="0 0 37 38" fill="none" xmlns="http://www.w3.org/2000/svg">
<path fill-rule="evenodd" clip-rule="evenodd" d="M12.8441 20.4805C12.423 20.0394 12.1865 19.4415 12.1865 18.8182C12.1865 18.1948 12.423 17.597 12.8441 17.1559L21.3222 8.28314C21.744 7.84207 22.316 7.59437 22.9124 7.59451C23.2077 7.59459 23.5001 7.65551 23.7728 7.7738C24.0456 7.89209 24.2935 8.06543 24.5022 8.28393C24.711 8.50243 24.8766 8.7618 24.9895 9.04724C25.1024 9.33269 25.1605 9.63861 25.1605 9.94754C25.1604 10.2565 25.1022 10.5624 24.9891 10.8477C24.876 11.1331 24.7103 11.3924 24.5015 11.6108L17.6123 18.8182L24.5015 26.0256C24.7163 26.2424 24.8877 26.5019 25.0057 26.7888C25.1237 27.0758 25.1858 27.3844 25.1886 27.6967C25.1913 28.0091 25.1345 28.3188 25.0216 28.608C24.9087 28.8971 24.7419 29.1598 24.5309 29.3808C24.3198 29.6018 24.0689 29.7766 23.7926 29.895C23.5163 30.0134 23.2203 30.073 22.9218 30.0705C22.6232 30.0679 22.3281 30.0032 22.0538 29.88C21.7794 29.7569 21.5312 29.5778 21.3237 29.3532L12.8411 20.4805H12.8441Z" fill="white"/>
</svg>
