<svg width="147" height="106" viewBox="0 0 147 106" fill="none" xmlns="http://www.w3.org/2000/svg">
<path d="M30.2196 18.8076H25.0215C23.0832 18.8076 21.6736 19.7767 20.7925 21.715C19.9702 23.6533 19.5591 26.7076 19.5591 30.8778V44.622C19.5591 46.9127 19.0598 48.851 18.0613 50.4369C17.1215 52.0228 15.8293 53.2856 14.1847 54.2253C16.0055 55.2826 17.3565 56.5161 18.2375 57.9257C19.1185 59.3354 19.5591 61.1856 19.5591 63.4763V82.4186C19.5591 85.5903 20.029 87.881 20.9687 89.2907C21.9085 90.7591 23.142 91.4933 24.6691 91.4933H30.2196V100.656H23.3475C21.7617 100.656 20.1171 100.451 18.4137 100.039C16.7691 99.6282 15.2713 98.894 13.9204 97.8368C12.5695 96.7795 11.4535 95.3111 10.5725 93.4316C9.69143 91.552 9.25091 89.1439 9.25091 86.2071V66.5599C9.25091 63.6231 8.86913 61.6261 8.10556 60.5688C7.34199 59.4528 6.31411 58.8949 5.02192 58.8949H1.67397V49.1153H5.37434C7.95872 49.1153 9.25091 46.7071 9.25091 41.8908V22.6842C9.25091 20.1585 9.66206 18.0734 10.4844 16.4288C11.3654 14.7254 12.452 13.3745 13.7442 12.376C15.0951 11.3775 16.5929 10.6727 18.2375 10.2615C19.8821 9.85035 21.4974 9.64478 23.0832 9.64478H30.2196V18.8076Z" fill="white" fill-opacity="0.03"/>
<path d="M68.65 46.45H59.5C56.8 46.45 54.7333 47.15 53.3 48.55C51.8667 49.95 51.15 52.0667 51.15 54.9C51.15 57.7 51.8667 59.8 53.3 61.2C54.7333 62.5667 56.8 63.25 59.5 63.25H68.65V73H57.6C55.0667 73 52.7667 72.6333 50.7 71.9C48.6333 71.1333 46.85 70 45.35 68.5C43.8833 67 42.7333 65.1167 41.9 62.85C41.1 60.5833 40.7 57.9333 40.7 54.9C40.7 51.9 41.1 49.2667 41.9 47C42.7333 44.7 43.8833 42.8 45.35 41.3C46.85 39.7667 48.6333 38.6167 50.7 37.85C52.7667 37.0833 55.0667 36.7 57.6 36.7H68.65V46.45ZM106.563 46.5H92.6133C92.0466 46.5 91.5966 46.6667 91.2633 47C90.9633 47.3333 90.8133 47.7167 90.8133 48.15C90.8133 48.5167 90.8966 48.85 91.0633 49.15C91.2299 49.4167 91.5299 49.7333 91.9633 50.1L99.1633 56.1C100.563 57.2667 101.647 58.5333 102.413 59.9C103.213 61.2667 103.613 62.75 103.613 64.35C103.613 65.4833 103.397 66.5833 102.963 67.65C102.53 68.6833 101.93 69.6 101.163 70.4C100.397 71.2 99.4466 71.8333 98.3133 72.3C97.2133 72.7667 95.9966 73 94.6633 73H74.8133V63.25H88.7633C89.2966 63.25 89.7299 63.1 90.0633 62.8C90.3966 62.4667 90.5633 62.0667 90.5633 61.6C90.5633 61.2667 90.4799 60.9833 90.3133 60.75C90.1799 60.4833 89.9299 60.1667 89.5633 59.8L82.1633 53.65C80.5966 52.3167 79.4633 51.0167 78.7633 49.75C78.0966 48.4833 77.7633 47.0333 77.7633 45.4C77.7633 44.2667 77.9799 43.1833 78.4133 42.15C78.8466 41.0833 79.4466 40.15 80.2133 39.35C80.9799 38.55 81.9133 37.9167 83.0133 37.45C84.1133 36.95 85.3466 36.7 86.7133 36.7H106.563V46.5Z" fill="url(#paint0_linear_7_20)"/>
<path d="M68.65 46.45V48.45H70.65V46.45H68.65ZM53.3 48.55L51.9025 47.1192V47.1192L53.3 48.55ZM53.3 61.2L51.9025 62.6308L51.9111 62.6392L51.9198 62.6475L53.3 61.2ZM68.65 63.25H70.65V61.25H68.65V63.25ZM68.65 73V75H70.65V73H68.65ZM50.7 71.9L50.0044 73.7751L50.0177 73.7801L50.0312 73.7849L50.7 71.9ZM45.35 68.5L43.92 69.8982L43.9278 69.9063L43.9358 69.9142L45.35 68.5ZM41.9 62.85L40.014 63.5156L40.0184 63.5279L40.0228 63.5401L41.9 62.85ZM41.9 47L40.0196 46.3187L40.0168 46.3265L40.014 46.3344L41.9 47ZM45.35 41.3L43.9203 39.9014L43.92 39.9018L45.35 41.3ZM68.65 36.7H70.65V34.7H68.65V36.7ZM68.65 44.45H59.5V48.45H68.65V44.45ZM59.5 44.45C56.4639 44.45 53.8243 45.2421 51.9025 47.1192L54.6975 49.9808C55.6424 49.0579 57.1361 48.45 59.5 48.45V44.45ZM51.9025 47.1192C49.9475 49.0288 49.15 51.7544 49.15 54.9H53.15C53.15 52.3789 53.7858 50.8712 54.6975 49.9808L51.9025 47.1192ZM49.15 54.9C49.15 58.0204 49.9517 60.7253 51.9025 62.6308L54.6975 59.7692C53.7817 58.8747 53.15 57.3796 53.15 54.9H49.15ZM51.9198 62.6475C53.843 64.4812 56.476 65.25 59.5 65.25V61.25C57.124 61.25 55.6236 60.6521 54.6802 59.7525L51.9198 62.6475ZM59.5 65.25H68.65V61.25H59.5V65.25ZM66.65 63.25V73H70.65V63.25H66.65ZM68.65 71H57.6V75H68.65V71ZM57.6 71C55.2598 71 53.1903 70.6615 51.3688 70.0151L50.0312 73.7849C52.3431 74.6052 54.8736 75 57.6 75V71ZM51.3956 70.0249C49.588 69.3543 48.0526 68.3742 46.7642 67.0858L43.9358 69.9142C45.6474 71.6258 47.6786 72.9124 50.0044 73.7751L51.3956 70.0249ZM46.78 67.1018C45.5384 65.8319 44.5277 64.2015 43.7772 62.1599L40.0228 63.5401C40.9389 66.0319 42.2283 68.1681 43.92 69.8982L46.78 67.1018ZM43.786 62.1844C43.0783 60.1792 42.7 57.7634 42.7 54.9H38.7C38.7 58.1033 39.1217 60.9875 40.014 63.5156L43.786 62.1844ZM42.7 54.9C42.7 52.0728 43.0775 49.6729 43.786 47.6656L40.014 46.3344C39.1225 48.8604 38.7 51.7272 38.7 54.9H42.7ZM43.7804 47.6813C44.5325 45.6054 45.5434 43.963 46.78 42.6982L43.92 39.9018C42.2233 41.637 40.9342 43.7945 40.0196 46.3187L43.7804 47.6813ZM46.7797 42.6986C48.0674 41.3823 49.5979 40.392 51.3956 39.7251L50.0044 35.9749C47.6687 36.8413 45.6326 38.1511 43.9203 39.9014L46.7797 42.6986ZM51.3956 39.7251C53.2091 39.0524 55.2692 38.7 57.6 38.7V34.7C54.8642 34.7 52.3242 35.1143 50.0044 35.9749L51.3956 39.7251ZM57.6 38.7H68.65V34.7H57.6V38.7ZM66.65 36.7V46.45H70.65V36.7H66.65ZM106.563 46.5V48.5H108.563V46.5H106.563ZM91.2633 47L89.8491 45.5858L89.8119 45.623L89.7767 45.6621L91.2633 47ZM91.0633 49.15L89.315 50.1213L89.34 50.1663L89.3673 50.21L91.0633 49.15ZM91.9633 50.1L90.6714 51.6268L90.6771 51.6316L90.6829 51.6364L91.9633 50.1ZM99.1633 56.1L100.444 54.5636L99.1633 56.1ZM102.413 59.9L100.669 60.8785L100.678 60.8945L100.687 60.9104L102.413 59.9ZM102.963 67.65L104.808 68.4235L104.812 68.4131L104.816 68.4028L102.963 67.65ZM101.163 70.4L102.607 71.7838L101.163 70.4ZM98.3133 72.3L97.5518 70.4506L97.542 70.4547L97.5322 70.4588L98.3133 72.3ZM74.8133 73H72.8133V75H74.8133V73ZM74.8133 63.25V61.25H72.8133V63.25H74.8133ZM90.0633 62.8L91.4012 64.2866L91.4403 64.2514L91.4775 64.2142L90.0633 62.8ZM90.3133 60.75L88.5244 61.6444L88.5946 61.7848L88.6858 61.9125L90.3133 60.75ZM89.5633 59.8L90.9775 58.3858L90.9124 58.3207L90.8416 58.2619L89.5633 59.8ZM82.1633 53.65L80.867 55.1731L80.876 55.1807L80.885 55.1881L82.1633 53.65ZM78.7633 49.75L76.9934 50.6815L77.0029 50.6995L77.0128 50.7174L78.7633 49.75ZM78.4133 42.15L80.2577 42.9235L80.262 42.9131L80.2662 42.9028L78.4133 42.15ZM83.0133 37.45L83.7944 39.2912L83.8178 39.2812L83.8409 39.2707L83.0133 37.45ZM106.563 36.7H108.563V34.7H106.563V36.7ZM106.563 44.5H92.6133V48.5H106.563V44.5ZM92.6133 44.5C91.6308 44.5 90.6314 44.8034 89.8491 45.5858L92.6775 48.4142C92.6598 48.4319 92.6373 48.4504 92.6112 48.4671C92.5852 48.4837 92.5621 48.4943 92.5454 48.5005C92.5119 48.5129 92.5251 48.5 92.6133 48.5V44.5ZM89.7767 45.6621C89.1588 46.3486 88.8133 47.2039 88.8133 48.15H92.8133C92.8133 48.1694 92.8089 48.2136 92.7883 48.2663C92.7681 48.3179 92.7464 48.3418 92.7499 48.3379L89.7767 45.6621ZM88.8133 48.15C88.8133 48.8326 88.972 49.5039 89.315 50.1213L92.8116 48.1787C92.8121 48.1795 92.8131 48.1816 92.8142 48.1844C92.8153 48.1872 92.8159 48.1893 92.8161 48.1899C92.8162 48.1905 92.8156 48.1882 92.8149 48.1823C92.8142 48.1764 92.8133 48.1658 92.8133 48.15H88.8133ZM89.3673 50.21C89.6986 50.7401 90.1855 51.2157 90.6714 51.6268L93.2552 48.5732C93.0789 48.4241 92.9523 48.3039 92.8652 48.212C92.7745 48.1163 92.7508 48.0764 92.7593 48.09L89.3673 50.21ZM90.6829 51.6364L97.8829 57.6364L100.444 54.5636L93.2436 48.5636L90.6829 51.6364ZM97.8829 57.6364C99.1256 58.672 100.039 59.7562 100.669 60.8785L104.158 58.9215C103.254 57.3105 102.001 55.8613 100.444 54.5636L97.8829 57.6364ZM100.687 60.9104C101.306 61.9672 101.613 63.1013 101.613 64.35H105.613C105.613 62.3987 105.121 60.5661 104.139 58.8896L100.687 60.9104ZM101.613 64.35C101.613 65.2211 101.448 66.0658 101.11 66.8972L104.816 68.4028C105.345 67.1009 105.613 65.7456 105.613 64.35H101.613ZM101.119 66.8765C100.779 67.6862 100.314 68.3954 99.7193 69.0162L102.607 71.7838C103.546 70.8046 104.281 69.6805 104.808 68.4235L101.119 66.8765ZM99.7193 69.0162C99.1648 69.5948 98.4552 70.0787 97.5518 70.4506L99.0748 74.1494C100.438 73.588 101.628 72.8052 102.607 71.7838L99.7193 69.0162ZM97.5322 70.4588C96.7064 70.8092 95.7594 71 94.6633 71V75C96.2339 75 97.7202 74.7242 99.0944 74.1412L97.5322 70.4588ZM94.6633 71H74.8133V75H94.6633V71ZM76.8133 73V63.25H72.8133V73H76.8133ZM74.8133 65.25H88.7633V61.25H74.8133V65.25ZM88.7633 65.25C89.6919 65.25 90.6333 64.9777 91.4012 64.2866L88.7254 61.3134C88.7413 61.299 88.7607 61.2846 88.7821 61.272C88.8035 61.2595 88.8218 61.2518 88.8341 61.2475C88.859 61.2389 88.8428 61.25 88.7633 61.25V65.25ZM91.4775 64.2142C92.1816 63.5101 92.5633 62.6031 92.5633 61.6H88.5633C88.5633 61.5898 88.5663 61.5428 88.5921 61.4808C88.604 61.4524 88.6174 61.4287 88.6296 61.4108C88.6416 61.3933 88.6496 61.3852 88.6491 61.3858L91.4775 64.2142ZM92.5633 61.6C92.5633 60.9198 92.3874 60.2128 91.9408 59.5875L88.6858 61.9125C88.6355 61.842 88.6015 61.7679 88.5821 61.7018C88.5634 61.6384 88.5633 61.6002 88.5633 61.6H92.5633ZM92.1021 59.8556C91.8269 59.3052 91.4013 58.8096 90.9775 58.3858L88.1491 61.2142C88.2919 61.357 88.3908 61.4691 88.456 61.5518C88.5239 61.6378 88.5359 61.6674 88.5244 61.6444L92.1021 59.8556ZM90.8416 58.2619L83.4416 52.1119L80.885 55.1881L88.285 61.3381L90.8416 58.2619ZM83.4595 52.1269C82.0053 50.8893 81.0591 49.7694 80.5138 48.7826L77.0128 50.7174C77.8675 52.2639 79.1879 53.744 80.867 55.1731L83.4595 52.1269ZM80.5331 48.8185C80.0378 47.8773 79.7633 46.7549 79.7633 45.4H75.7633C75.7633 47.3117 76.1555 49.0893 76.9934 50.6815L80.5331 48.8185ZM79.7633 45.4C79.7633 44.5291 79.9282 43.709 80.2577 42.9235L76.5689 41.3765C76.0316 42.6577 75.7633 44.0042 75.7633 45.4H79.7633ZM80.2662 42.9028C80.6081 42.0611 81.0724 41.3441 81.6573 40.7338L78.7693 37.9662C77.8208 38.9559 77.0851 40.1056 76.5603 41.3972L80.2662 42.9028ZM81.6573 40.7338C82.2219 40.1446 82.9243 39.6603 83.7944 39.2912L82.2322 35.6088C80.9023 36.173 79.738 36.9554 78.7693 37.9662L81.6573 40.7338ZM83.8409 39.2707C84.6489 38.9035 85.5947 38.7 86.7133 38.7V34.7C85.0986 34.7 83.5777 34.9965 82.1857 35.6293L83.8409 39.2707ZM86.7133 38.7H106.563V34.7H86.7133V38.7ZM104.563 36.7V46.5H108.563V36.7H104.563Z" fill="white" fill-opacity="0.81"/>
<path d="M137.171 41.8908C137.171 44.5339 137.494 46.4135 138.14 47.5295C138.845 48.5867 139.903 49.1153 141.312 49.1153H144.66V58.8949H141.312C140.079 58.8949 139.08 59.4235 138.317 60.4807C137.553 61.538 137.171 63.5644 137.171 66.5599V85.5903C137.171 88.7033 136.731 91.229 135.85 93.1673C135.027 95.1056 133.941 96.6327 132.59 97.7487C131.239 98.8647 129.712 99.6282 128.009 100.039C126.305 100.451 124.631 100.656 122.987 100.656H116.203V91.4933H121.665C123.192 91.4933 124.426 90.7591 125.365 89.2907C126.364 87.881 126.863 85.5903 126.863 82.4186V63.4763C126.863 61.1856 127.304 59.3354 128.185 57.9257C129.066 56.5161 130.417 55.2826 132.238 54.2253C130.534 53.2856 129.213 52.0228 128.273 50.4369C127.333 48.851 126.863 46.9127 126.863 44.622V31.4064C126.863 27.0012 126.423 23.8001 125.542 21.8031C124.661 19.8061 123.28 18.8076 121.401 18.8076H116.203V9.64478H123.251C124.837 9.64478 126.452 9.85035 128.097 10.2615C129.8 10.6727 131.298 11.3775 132.59 12.376C133.941 13.3158 135.027 14.6373 135.85 16.3407C136.731 18.044 137.171 20.1585 137.171 22.6842V41.8908Z" fill="white" fill-opacity="0.03"/>
<defs>
<linearGradient id="paint0_linear_7_20" x1="25.2726" y1="91.1818" x2="110.957" y2="89.2918" gradientUnits="userSpaceOnUse">
<stop stop-color="#6F7AFC"/>
<stop offset="1" stop-color="#DE519A"/>
</linearGradient>
</defs>
</svg>
