<svg width="13" height="13" viewBox="0 0 13 13" fill="none" xmlns="http://www.w3.org/2000/svg">
<path d="M12 12L9.34597 9.34597M9.34597 9.34597C9.79996 8.89199 10.1601 8.35304 10.4058 7.75988C10.6515 7.16673 10.7779 6.53099 10.7779 5.88896C10.7779 5.24693 10.6515 4.61119 10.4058 4.01804C10.1601 3.42488 9.79996 2.88592 9.34597 2.43194C8.89199 1.97796 8.35304 1.61784 7.75988 1.37215C7.16673 1.12646 6.53099 1 5.88896 1C5.24693 1 4.61119 1.12646 4.01804 1.37215C3.42488 1.61784 2.88592 1.97796 2.43194 2.43194C1.51509 3.3488 1 4.59233 1 5.88896C1 7.18559 1.51509 8.42912 2.43194 9.34597C3.3488 10.2628 4.59233 10.7779 5.88896 10.7779C7.18559 10.7779 8.42912 10.2628 9.34597 9.34597Z" stroke="black" stroke-width="2" stroke-linecap="round" stroke-linejoin="round"/>
</svg>
